<?xml version="1.0" encoding="utf-8" standalone="no"?>
<!DOCTYPE svg PUBLIC "-//W3C//DTD SVG 1.1//EN"
  "http://www.w3.org/Graphics/SVG/1.1/DTD/svg11.dtd">
<svg xmlns:xlink="http://www.w3.org/1999/xlink" width="856.8pt" height="1132.56pt" viewBox="0 0 856.8 1132.56" xmlns="http://www.w3.org/2000/svg" version="1.1">
 <metadata>
  <rdf:RDF xmlns:dc="http://purl.org/dc/elements/1.1/" xmlns:cc="http://creativecommons.org/ns#" xmlns:rdf="http://www.w3.org/1999/02/22-rdf-syntax-ns#">
   <cc:Work>
    <dc:type rdf:resource="http://purl.org/dc/dcmitype/StillImage"/>
    <dc:date>2026-10-07T11:41:32.844797</dc:date>
    <dc:format>image/svg+xml</dc:format>
    <dc:creator>
     <cc:Agent>
      <dc:title>Matplotlib v3.9.4, https://matplotlib.org/</dc:title>
     </cc:Agent>
    </dc:creator>
   </cc:Work>
  </rdf:RDF>
 </metadata>
 <defs>
  <style type="text/css">*{stroke-linejoin: round; stroke-linecap: butt}</style>
 </defs>
 <g id="figure_1">
  <g id="patch_1">
   <path d="M 0 1132.56 
L 856.8 1132.56 
L 856.8 0 
L 0 0 
z
" style="fill: #ffffff"/>
  </g>
  <g id="axes_1">
   <g id="patch_2">
    <path d="M 291.348 121.446891 
L 500.652 121.446891 
Q 507.132 121.446891 507.132 117.026313 
L 507.132 78.125233 
Q 507.132 73.704656 500.652 73.704656 
L 291.348 73.704656 
Q 284.868 73.704656 284.868 78.125233 
L 284.868 117.026313 
Q 284.868 121.446891 291.348 121.446891 
z
" clip-path="url(#p60091c5608)" style="fill: #e8f1f7; stroke: #245b85; stroke-width: 1.2; stroke-linejoin: miter"/>
   </g>
   <g id="patch_3">
    <path d="M 291.348 209.858437 
L 500.652 209.858437 
Q 507.132 209.858437 507.132 205.43786 
L 507.132 166.536779 
Q 507.132 162.116202 500.652 162.116202 
L 291.348 162.116202 
Q 284.868 162.116202 284.868 166.536779 
L 284.868 205.43786 
Q 284.868 209.858437 291.348 209.858437 
z
" clip-path="url(#p60091c5608)" style="fill: #e8f1f7; stroke: #245b85; stroke-width: 1.2; stroke-linejoin: miter"/>
   </g>
   <g id="patch_4">
    <path d="M 291.348 298.269984 
L 500.652 298.269984 
Q 507.132 298.269984 507.132 293.849406 
L 507.132 254.948326 
Q 507.132 250.527748 500.652 250.527748 
L 291.348 250.527748 
Q 284.868 250.527748 284.868 254.948326 
L 284.868 293.849406 
Q 284.868 298.269984 291.348 298.269984 
z
" clip-path="url(#p60091c5608)" style="fill: #e8f1f7; stroke: #245b85; stroke-width: 1.2; stroke-linejoin: miter"/>
   </g>
   <g id="patch_5">
    <path d="M 96.948 386.68153 
L 306.252 386.68153 
Q 312.732 386.68153 312.732 382.260953 
L 312.732 343.359872 
Q 312.732 338.939295 306.252 338.939295 
L 96.948 338.939295 
Q 90.468 338.939295 90.468 343.359872 
L 90.468 382.260953 
Q 90.468 386.68153 96.948 386.68153 
z
" clip-path="url(#p60091c5608)" style="fill: #e8f1f7; stroke: #245b85; stroke-width: 1.2; stroke-linejoin: miter"/>
   </g>
   <g id="patch_6">
    <path d="M 550.548 386.68153 
L 759.852 386.68153 
Q 766.332 386.68153 766.332 382.260953 
L 766.332 343.359872 
Q 766.332 338.939295 759.852 338.939295 
L 550.548 338.939295 
Q 544.068 338.939295 544.068 343.359872 
L 544.068 382.260953 
Q 544.068 386.68153 550.548 386.68153 
z
" clip-path="url(#p60091c5608)" style="fill: #e8f1f7; stroke: #245b85; stroke-width: 1.2; stroke-linejoin: miter"/>
   </g>
   <g id="patch_7">
    <path d="M 96.948 497.195963 
L 306.252 497.195963 
Q 312.732 497.195963 312.732 492.775386 
L 312.732 453.874305 
Q 312.732 449.453728 306.252 449.453728 
L 96.948 449.453728 
Q 90.468 449.453728 90.468 453.874305 
L 90.468 492.775386 
Q 90.468 497.195963 96.948 497.195963 
z
" clip-path="url(#p60091c5608)" style="fill: #e7f3ef; stroke: #218276; stroke-width: 1.2; stroke-linejoin: miter"/>
   </g>
   <g id="patch_8">
    <path d="M 291.348 607.710396 
L 500.652 607.710396 
Q 507.132 607.710396 507.132 603.289819 
L 507.132 564.388738 
Q 507.132 559.968161 500.652 559.968161 
L 291.348 559.968161 
Q 284.868 559.968161 284.868 564.388738 
L 284.868 603.289819 
Q 284.868 607.710396 291.348 607.710396 
z
" clip-path="url(#p60091c5608)" style="fill: #e7f3ef; stroke: #218276; stroke-width: 1.2; stroke-linejoin: miter"/>
   </g>
   <g id="patch_9">
    <path d="M 291.348 718.224829 
L 500.652 718.224829 
Q 507.132 718.224829 507.132 713.804252 
L 507.132 674.903171 
Q 507.132 670.482594 500.652 670.482594 
L 291.348 670.482594 
Q 284.868 670.482594 284.868 674.903171 
L 284.868 713.804252 
Q 284.868 718.224829 291.348 718.224829 
z
" clip-path="url(#p60091c5608)" style="fill: #e8f1f7; stroke: #245b85; stroke-width: 1.2; stroke-linejoin: miter"/>
   </g>
   <g id="patch_10">
    <path d="M 291.348 806.636375 
L 500.652 806.636375 
Q 507.132 806.636375 507.132 802.215798 
L 507.132 763.314718 
Q 507.132 758.89414 500.652 758.89414 
L 291.348 758.89414 
Q 284.868 758.89414 284.868 763.314718 
L 284.868 802.215798 
Q 284.868 806.636375 291.348 806.636375 
z
" clip-path="url(#p60091c5608)" style="fill: #e8f1f7; stroke: #245b85; stroke-width: 1.2; stroke-linejoin: miter"/>
   </g>
   <g id="patch_11">
    <path d="M 291.348 895.047922 
L 500.652 895.047922 
Q 507.132 895.047922 507.132 890.627344 
L 507.132 851.726264 
Q 507.132 847.305687 500.652 847.305687 
L 291.348 847.305687 
Q 284.868 847.305687 284.868 851.726264 
L 284.868 890.627344 
Q 284.868 895.047922 291.348 895.047922 
z
" clip-path="url(#p60091c5608)" style="fill: #e8f1f7; stroke: #245b85; stroke-width: 1.2; stroke-linejoin: miter"/>
   </g>
   <g id="patch_12">
    <path d="M 291.348 974.618313 
L 500.652 974.618313 
Q 507.132 974.618313 507.132 970.197736 
L 507.132 931.296656 
Q 507.132 926.876078 500.652 926.876078 
L 291.348 926.876078 
Q 284.868 926.876078 284.868 931.296656 
L 284.868 970.197736 
Q 284.868 974.618313 291.348 974.618313 
z
" clip-path="url(#p60091c5608)" style="fill: #e8f1f7; stroke: #245b85; stroke-width: 1.2; stroke-linejoin: miter"/>
   </g>
   <g id="patch_13">
    <path d="M 291.348 1054.188705 
L 500.652 1054.188705 
Q 507.132 1054.188705 507.132 1049.768128 
L 507.132 1010.867047 
Q 507.132 1006.44647 500.652 1006.44647 
L 291.348 1006.44647 
Q 284.868 1006.44647 284.868 1010.867047 
L 284.868 1049.768128 
Q 284.868 1054.188705 291.348 1054.188705 
z
" clip-path="url(#p60091c5608)" style="fill: #e8f1f7; stroke: #245b85; stroke-width: 1.2; stroke-linejoin: miter"/>
   </g>
   <g id="patch_14">
    <path d="M 291.348 1124.917942 
L 500.652 1124.917942 
Q 507.132 1124.917942 507.132 1120.497365 
L 507.132 1081.596285 
Q 507.132 1077.175707 500.652 1077.175707 
L 291.348 1077.175707 
Q 284.868 1077.175707 284.868 1081.596285 
L 284.868 1120.497365 
Q 284.868 1124.917942 291.348 1124.917942 
z
" clip-path="url(#p60091c5608)" style="fill: #e7f3ef; stroke: #218276; stroke-width: 1.2; stroke-linejoin: miter"/>
   </g>
   <g id="patch_15">
    <path d="M 396 121.677957 
Q 396 141.780388 396 160.541179 
" clip-path="url(#p60091c5608)" style="fill: none; stroke: #4b5966; stroke-width: 1.2; stroke-linecap: round"/>
    <path d="M 398.4 155.741179 
L 396 160.541179 
L 393.6 155.741179 
z
" clip-path="url(#p60091c5608)" style="fill: #4b5966; stroke: #4b5966; stroke-width: 1.2; stroke-linecap: round"/>
   </g>
   <g id="patch_16">
    <path d="M 396 210.089503 
Q 396 230.191935 396 248.952725 
" clip-path="url(#p60091c5608)" style="fill: none; stroke: #4b5966; stroke-width: 1.2; stroke-linecap: round"/>
    <path d="M 398.4 244.152725 
L 396 248.952725 
L 393.6 244.152725 
z
" clip-path="url(#p60091c5608)" style="fill: #4b5966; stroke: #4b5966; stroke-width: 1.2; stroke-linecap: round"/>
   </g>
   <g id="patch_17">
    <path d="M 345.581653 297.328722 
Q 298.800457 318.604431 253.240532 339.324716 
" clip-path="url(#p60091c5608)" style="fill: none; stroke: #4b5966; stroke-width: 1.2; stroke-linecap: round"/>
    <path d="M 258.603459 339.522247 
L 253.240532 339.324716 
L 256.616312 335.152893 
z
" clip-path="url(#p60091c5608)" style="fill: #4b5966; stroke: #4b5966; stroke-width: 1.2; stroke-linecap: round"/>
   </g>
   <g id="patch_18">
    <path d="M 462.694482 297.147949 
Q 525.602155 318.605374 587.240022 339.629677 
" clip-path="url(#p60091c5608)" style="fill: none; stroke: #4b5966; stroke-width: 1.2; stroke-linecap: round"/>
    <path d="M 583.471824 335.808593 
L 587.240022 339.629677 
L 581.922236 340.351586 
z
" clip-path="url(#p60091c5608)" style="fill: #4b5966; stroke: #4b5966; stroke-width: 1.2; stroke-linecap: round"/>
   </g>
   <g id="patch_19">
    <path d="M 201.6 386.916643 
Q 201.6 418.070418 201.6 447.882552 
" clip-path="url(#p60091c5608)" style="fill: none; stroke: #4b5966; stroke-width: 1.2; stroke-linecap: round"/>
    <path d="M 204 443.082552 
L 201.6 447.882552 
L 199.2 443.082552 
z
" clip-path="url(#p60091c5608)" style="fill: #4b5966; stroke: #4b5966; stroke-width: 1.2; stroke-linecap: round"/>
   </g>
   <g id="patch_20">
    <path d="M 242.22063 496.417262 
Q 298.802468 528.583465 354.217963 560.086613 
" clip-path="url(#p60091c5608)" style="fill: none; stroke: #4b5966; stroke-width: 1.2; stroke-linecap: round"/>
    <path d="M 351.231232 555.627977 
L 354.217963 560.086613 
L 348.859015 559.800816 
z
" clip-path="url(#p60091c5608)" style="fill: #4b5966; stroke: #4b5966; stroke-width: 1.2; stroke-linecap: round"/>
   </g>
   <g id="patch_21">
    <path d="M 627.758086 386.211088 
Q 525.600697 473.324251 424.464177 559.566883 
" clip-path="url(#p60091c5608)" style="fill: none; stroke: #4b5966; stroke-width: 1.2; stroke-linecap: round"/>
    <path d="M 429.673806 558.278563 
L 424.464177 559.566883 
L 426.559299 554.626188 
z
" clip-path="url(#p60091c5608)" style="fill: #4b5966; stroke: #4b5966; stroke-width: 1.2; stroke-linecap: round"/>
   </g>
   <g id="patch_22">
    <path d="M 396 607.945509 
Q 396 639.099284 396 668.911417 
" clip-path="url(#p60091c5608)" style="fill: none; stroke: #4b5966; stroke-width: 1.2; stroke-linecap: round"/>
    <path d="M 398.4 664.111417 
L 396 668.911417 
L 393.6 664.111417 
z
" clip-path="url(#p60091c5608)" style="fill: #4b5966; stroke: #4b5966; stroke-width: 1.2; stroke-linecap: round"/>
   </g>
   <g id="patch_23">
    <path d="M 396 718.455895 
Q 396 738.558326 396 757.319117 
" clip-path="url(#p60091c5608)" style="fill: none; stroke: #4b5966; stroke-width: 1.2; stroke-linecap: round"/>
    <path d="M 398.4 752.519117 
L 396 757.319117 
L 393.6 752.519117 
z
" clip-path="url(#p60091c5608)" style="fill: #4b5966; stroke: #4b5966; stroke-width: 1.2; stroke-linecap: round"/>
   </g>
   <g id="patch_24">
    <path d="M 396 806.867441 
Q 396 826.969873 396 845.730663 
" clip-path="url(#p60091c5608)" style="fill: none; stroke: #4b5966; stroke-width: 1.2; stroke-linecap: round"/>
    <path d="M 398.4 840.930663 
L 396 845.730663 
L 393.6 840.930663 
z
" clip-path="url(#p60091c5608)" style="fill: #4b5966; stroke: #4b5966; stroke-width: 1.2; stroke-linecap: round"/>
   </g>
   <g id="patch_25">
    <path d="M 396 895.278448 
Q 396 910.961462 396 925.302835 
" clip-path="url(#p60091c5608)" style="fill: none; stroke: #4b5966; stroke-width: 1.2; stroke-linecap: round"/>
    <path d="M 398.4 920.502835 
L 396 925.302835 
L 393.6 920.502835 
z
" clip-path="url(#p60091c5608)" style="fill: #4b5966; stroke: #4b5966; stroke-width: 1.2; stroke-linecap: round"/>
   </g>
   <g id="patch_26">
    <path d="M 396 974.84884 
Q 396 990.531853 396 1004.873227 
" clip-path="url(#p60091c5608)" style="fill: none; stroke: #4b5966; stroke-width: 1.2; stroke-linecap: round"/>
    <path d="M 398.4 1000.073227 
L 396 1004.873227 
L 393.6 1000.073227 
z
" clip-path="url(#p60091c5608)" style="fill: #4b5966; stroke: #4b5966; stroke-width: 1.2; stroke-linecap: round"/>
   </g>
   <g id="patch_27">
    <path d="M 396 1054.418152 
Q 396 1065.679595 396 1075.599398 
" clip-path="url(#p60091c5608)" style="fill: none; stroke: #4b5966; stroke-width: 1.2; stroke-linecap: round"/>
    <path d="M 398.4 1070.799398 
L 396 1075.599398 
L 393.6 1070.799398 
z
" clip-path="url(#p60091c5608)" style="fill: #4b5966; stroke: #4b5966; stroke-width: 1.2; stroke-linecap: round"/>
   </g>
   <g id="text_1">
    <text style="font: 9.5px 'DejaVu Sans'" transform="translate(353.015469 89.559258)">Trained boundary,</text>
    <text style="font: 9.5px 'DejaVu Sans'" transform="translate(341.957617 100.197179)">recognition, visual and</text>
    <text style="font: 9.5px 'DejaVu Sans'" transform="translate(360.073672 110.835101)">English models</text>
   </g>
   <g id="text_2">
    <text style="font: 9.5px 'DejaVu Sans'" transform="translate(326.681914 183.289765)">Model export and application</text>
    <text style="font: 9.5px 'DejaVu Sans'" transform="translate(378.502187 193.927687)">loading</text>
   </g>
   <g id="text_3">
    <text style="font: 9.5px 'DejaVu Sans'; text-anchor: middle" x="396" y="277.020272" transform="rotate(-0 396 277.020272)">Device camera frames</text>
   </g>
   <g id="text_4">
    <text style="font: 9.5px 'DejaVu Sans'" transform="translate(125.840469 360.112858)">Landmark extractor: movement</text>
    <text style="font: 9.5px 'DejaVu Sans'" transform="translate(181.978789 370.75078)">features</text>
   </g>
   <g id="text_5">
    <text style="font: 9.5px 'DejaVu Sans'" transform="translate(596.400938 360.112858)">MobileCLIP2 hand-image</text>
    <text style="font: 9.5px 'DejaVu Sans'" transform="translate(635.578789 370.75078)">features</text>
   </g>
   <g id="text_6">
    <text style="font: 9.5px 'DejaVu Sans'" transform="translate(138.411641 470.627291)">Boundary model: estimate</text>
    <text style="font: 9.5px 'DejaVu Sans'" transform="translate(144.597773 481.265213)">candidate sign intervals</text>
   </g>
   <g id="text_7">
    <text style="font: 9.5px 'DejaVu Sans'" transform="translate(331.719883 581.141724)">Squeezeformer recognizer:</text>
    <text style="font: 9.5px 'DejaVu Sans'" transform="translate(344.345977 591.779646)">score candidate signs</text>
   </g>
   <g id="text_8">
    <text style="font: 9.5px 'DejaVu Sans'" transform="translate(332.396758 691.656157)">Segmental decoder: select</text>
    <text style="font: 9.5px 'DejaVu Sans'" transform="translate(332.488047 702.294079)">and commit stable glosses</text>
   </g>
   <g id="text_9">
    <text style="font: 9.5px 'DejaVu Sans'" transform="translate(328.736289 780.067703)">Gloss Management: ordered</text>
    <text style="font: 9.5px 'DejaVu Sans'" transform="translate(373.109453 790.705625)">sequence</text>
   </g>
   <g id="text_10">
    <text style="font: 9.5px 'DejaVu Sans'" transform="translate(357.076719 868.479249)">T5-efficient-tiny:</text>
    <text style="font: 9.5px 'DejaVu Sans'" transform="translate(348.976484 879.117171)">incremental English</text>
   </g>
   <g id="text_11">
    <text style="font: 9.5px 'DejaVu Sans'" transform="translate(333.790586 948.049641)">Finish button or held open</text>
    <text style="font: 9.5px 'DejaVu Sans'" transform="translate(381.652773 958.687563)">palms</text>
   </g>
   <g id="text_12">
    <text style="font: 9.5px 'DejaVu Sans'; text-anchor: middle" x="396" y="1032.938994" transform="rotate(-0 396 1032.938994)">Finalize English text</text>
   </g>
   <g id="text_13">
    <text style="font: 9.5px 'DejaVu Sans'" transform="translate(344.939727 1098.34927)">English text and local</text>
    <text style="font: 9.5px 'DejaVu Sans'" transform="translate(379.0425 1108.987192)">speech</text>
   </g>
   <g id="text_14">
    <g id="patch_28">
     <path d="M 245.04875 525.901119 
L 365.51125 525.901119 
L 365.51125 516.238619 
L 245.04875 516.238619 
z
" style="fill: #ffffff"/>
    </g>
    <text style="font: 8px 'DejaVu Sans'; text-anchor: middle" x="305.28" y="523.277369" transform="rotate(-0 305.28 523.277369)">Candidate landmark intervals</text>
   </g>
   <g id="text_15">
    <g id="patch_29">
     <path d="M 489.306875 470.643903 
L 574.853125 470.643903 
L 574.853125 460.981403 
L 489.306875 460.981403 
z
" style="fill: #ffffff"/>
    </g>
    <text style="font: 8px 'DejaVu Sans'; text-anchor: middle" x="532.08" y="468.020153" transform="rotate(-0 532.08 468.020153)">Appearance features</text>
   </g>
   <g id="text_16">
    <g id="patch_30">
     <path d="M 378.69375 636.415552 
L 426.26625 636.415552 
L 426.26625 626.753052 
L 378.69375 626.753052 
z
" style="fill: #ffffff"/>
    </g>
    <text style="font: 8px 'DejaVu Sans'; text-anchor: middle" x="402.48" y="633.791802" transform="rotate(-0 402.48 633.791802)">Sign scores</text>
   </g>
   <g id="text_17">
    <g id="patch_31">
     <path d="M 366.80375 735.878542 
L 438.15625 735.878542 
L 438.15625 726.216042 
L 366.80375 726.216042 
z
" style="fill: #ffffff"/>
    </g>
    <text style="font: 8px 'DejaVu Sans'; text-anchor: middle" x="402.48" y="733.254792" transform="rotate(-0 402.48 733.254792)">Accepted glosses</text>
   </g>
  </g>
  <g id="text_18">
   <text style="font: 700 14px 'DejaVu Sans'; text-anchor: middle" x="428.4" y="17.837813" transform="rotate(-0 428.4 17.837813)">Model deployment and ATLAS workflow</text>
  </g>
 </g>
 <defs>
  <clipPath id="p60091c5608">
   <rect x="7.2" y="53.37" width="842.4" height="1071.99"/>
  </clipPath>
 </defs>
</svg>
