<?xml version="1.0" encoding="utf-8" standalone="no"?>
<!DOCTYPE svg PUBLIC "-//W3C//DTD SVG 1.1//EN"
  "http://www.w3.org/Graphics/SVG/1.1/DTD/svg11.dtd">
<svg xmlns:xlink="http://www.w3.org/1999/xlink" width="569.3625pt" height="273.634375pt" viewBox="0 0 569.3625 273.634375" xmlns="http://www.w3.org/2000/svg" version="1.1">
 <metadata>
  <rdf:RDF xmlns:dc="http://purl.org/dc/elements/1.1/" xmlns:cc="http://creativecommons.org/ns#" xmlns:rdf="http://www.w3.org/1999/02/22-rdf-syntax-ns#">
   <cc:Work>
    <dc:type rdf:resource="http://purl.org/dc/dcmitype/StillImage"/>
    <dc:date>2026-09-30T09:28:25.510495</dc:date>
    <dc:format>image/svg+xml</dc:format>
    <dc:creator>
     <cc:Agent>
      <dc:title>Matplotlib v3.9.4, https://matplotlib.org/</dc:title>
     </cc:Agent>
    </dc:creator>
   </cc:Work>
  </rdf:RDF>
 </metadata>
 <defs>
  <style type="text/css">*{stroke-linejoin: round; stroke-linecap: butt}</style>
 </defs>
 <g id="figure_1">
  <g id="patch_1">
   <path d="M 0 273.634375 
L 569.3625 273.634375 
L 569.3625 0 
L 0 0 
z
" style="fill: #ffffff"/>
  </g>
  <g id="axes_1">
   <g id="patch_2">
    <path d="M 56.50625 236.078125 
L 562.1625 236.078125 
L 562.1625 22.318125 
L 56.50625 22.318125 
z
" style="fill: #ffffff"/>
   </g>
   <g id="matplotlib.axis_1">
    <g id="xtick_1">
     <g id="line2d_1">
      <defs>
       <path id="m0508672a33" d="M 0 0 
L 0 3.5 
" style="stroke: #000000; stroke-width: 0.8"/>
      </defs>
      <g>
       <use xlink:href="#m0508672a33" x="112.876534" y="236.078125" style="stroke: #000000; stroke-width: 0.8"/>
      </g>
     </g>
     <g id="text_1">
      <text style="font: 10px 'DejaVu Sans'; text-anchor: middle" x="112.876534" y="250.676562" transform="rotate(-0 112.876534 250.676562)">1500</text>
     </g>
    </g>
    <g id="xtick_2">
     <g id="line2d_2">
      <g>
       <use xlink:href="#m0508672a33" x="183.014999" y="236.078125" style="stroke: #000000; stroke-width: 0.8"/>
      </g>
     </g>
     <g id="text_2">
      <text style="font: 10px 'DejaVu Sans'; text-anchor: middle" x="183.014999" y="250.676562" transform="rotate(-0 183.014999 250.676562)">2000</text>
     </g>
    </g>
    <g id="xtick_3">
     <g id="line2d_3">
      <g>
       <use xlink:href="#m0508672a33" x="253.153464" y="236.078125" style="stroke: #000000; stroke-width: 0.8"/>
      </g>
     </g>
     <g id="text_3">
      <text style="font: 10px 'DejaVu Sans'; text-anchor: middle" x="253.153464" y="250.676562" transform="rotate(-0 253.153464 250.676562)">2500</text>
     </g>
    </g>
    <g id="xtick_4">
     <g id="line2d_4">
      <g>
       <use xlink:href="#m0508672a33" x="323.29193" y="236.078125" style="stroke: #000000; stroke-width: 0.8"/>
      </g>
     </g>
     <g id="text_4">
      <text style="font: 10px 'DejaVu Sans'; text-anchor: middle" x="323.29193" y="250.676562" transform="rotate(-0 323.29193 250.676562)">3000</text>
     </g>
    </g>
    <g id="xtick_5">
     <g id="line2d_5">
      <g>
       <use xlink:href="#m0508672a33" x="393.430395" y="236.078125" style="stroke: #000000; stroke-width: 0.8"/>
      </g>
     </g>
     <g id="text_5">
      <text style="font: 10px 'DejaVu Sans'; text-anchor: middle" x="393.430395" y="250.676562" transform="rotate(-0 393.430395 250.676562)">3500</text>
     </g>
    </g>
    <g id="xtick_6">
     <g id="line2d_6">
      <g>
       <use xlink:href="#m0508672a33" x="463.56886" y="236.078125" style="stroke: #000000; stroke-width: 0.8"/>
      </g>
     </g>
     <g id="text_6">
      <text style="font: 10px 'DejaVu Sans'; text-anchor: middle" x="463.56886" y="250.676562" transform="rotate(-0 463.56886 250.676562)">4000</text>
     </g>
    </g>
    <g id="xtick_7">
     <g id="line2d_7">
      <g>
       <use xlink:href="#m0508672a33" x="533.707325" y="236.078125" style="stroke: #000000; stroke-width: 0.8"/>
      </g>
     </g>
     <g id="text_7">
      <text style="font: 10px 'DejaVu Sans'; text-anchor: middle" x="533.707325" y="250.676562" transform="rotate(-0 533.707325 250.676562)">4500</text>
     </g>
    </g>
    <g id="text_8">
     <text style="font: 10px 'DejaVu Sans'; text-anchor: middle" x="309.334375" y="264.354687" transform="rotate(-0 309.334375 264.354687)">Optimizer step</text>
    </g>
   </g>
   <g id="matplotlib.axis_2">
    <g id="ytick_1">
     <g id="line2d_8">
      <defs>
       <path id="ma5af702aa2" d="M 0 0 
L -3.5 0 
" style="stroke: #000000; stroke-width: 0.8"/>
      </defs>
      <g>
       <use xlink:href="#ma5af702aa2" x="56.50625" y="227.917209" style="stroke: #000000; stroke-width: 0.8"/>
      </g>
     </g>
     <g id="text_9">
      <text style="font: 10px 'DejaVu Sans'; text-anchor: end" x="49.50625" y="231.716428" transform="rotate(-0 49.50625 231.716428)">0.250</text>
     </g>
    </g>
    <g id="ytick_2">
     <g id="line2d_9">
      <g>
       <use xlink:href="#ma5af702aa2" x="56.50625" y="201.99308" style="stroke: #000000; stroke-width: 0.8"/>
      </g>
     </g>
     <g id="text_10">
      <text style="font: 10px 'DejaVu Sans'; text-anchor: end" x="49.50625" y="205.792299" transform="rotate(-0 49.50625 205.792299)">0.275</text>
     </g>
    </g>
    <g id="ytick_3">
     <g id="line2d_10">
      <g>
       <use xlink:href="#ma5af702aa2" x="56.50625" y="176.068951" style="stroke: #000000; stroke-width: 0.8"/>
      </g>
     </g>
     <g id="text_11">
      <text style="font: 10px 'DejaVu Sans'; text-anchor: end" x="49.50625" y="179.868169" transform="rotate(-0 49.50625 179.868169)">0.300</text>
     </g>
    </g>
    <g id="ytick_4">
     <g id="line2d_11">
      <g>
       <use xlink:href="#ma5af702aa2" x="56.50625" y="150.144821" style="stroke: #000000; stroke-width: 0.8"/>
      </g>
     </g>
     <g id="text_12">
      <text style="font: 10px 'DejaVu Sans'; text-anchor: end" x="49.50625" y="153.94404" transform="rotate(-0 49.50625 153.94404)">0.325</text>
     </g>
    </g>
    <g id="ytick_5">
     <g id="line2d_12">
      <g>
       <use xlink:href="#ma5af702aa2" x="56.50625" y="124.220692" style="stroke: #000000; stroke-width: 0.8"/>
      </g>
     </g>
     <g id="text_13">
      <text style="font: 10px 'DejaVu Sans'; text-anchor: end" x="49.50625" y="128.019911" transform="rotate(-0 49.50625 128.019911)">0.350</text>
     </g>
    </g>
    <g id="ytick_6">
     <g id="line2d_13">
      <g>
       <use xlink:href="#ma5af702aa2" x="56.50625" y="98.296563" style="stroke: #000000; stroke-width: 0.8"/>
      </g>
     </g>
     <g id="text_14">
      <text style="font: 10px 'DejaVu Sans'; text-anchor: end" x="49.50625" y="102.095782" transform="rotate(-0 49.50625 102.095782)">0.375</text>
     </g>
    </g>
    <g id="ytick_7">
     <g id="line2d_14">
      <g>
       <use xlink:href="#ma5af702aa2" x="56.50625" y="72.372434" style="stroke: #000000; stroke-width: 0.8"/>
      </g>
     </g>
     <g id="text_15">
      <text style="font: 10px 'DejaVu Sans'; text-anchor: end" x="49.50625" y="76.171652" transform="rotate(-0 49.50625 76.171652)">0.400</text>
     </g>
    </g>
    <g id="ytick_8">
     <g id="line2d_15">
      <g>
       <use xlink:href="#ma5af702aa2" x="56.50625" y="46.448304" style="stroke: #000000; stroke-width: 0.8"/>
      </g>
     </g>
     <g id="text_16">
      <text style="font: 10px 'DejaVu Sans'; text-anchor: end" x="49.50625" y="50.247523" transform="rotate(-0 49.50625 50.247523)">0.425</text>
     </g>
    </g>
    <g id="text_17">
     <text style="font: 10px 'DejaVu Sans'; text-anchor: middle" x="14.798438" y="129.198125" transform="rotate(-90 14.798438 129.198125)">Recorded loss</text>
    </g>
   </g>
   <g id="line2d_16">
    <path d="M 79.490625 32.034489 
L 248.384049 132.723807 
L 379.683255 153.7742 
L 538.757294 180.216811 
L 539.178125 178.76506 
" clip-path="url(#pd27f0404a4)" style="fill: none; stroke: #245b85; stroke-width: 1.5; stroke-linecap: square"/>
    <defs>
     <path id="mfa9beeaa49" d="M 0 3 
C 0.795609 3 1.55874 2.683901 2.12132 2.12132 
C 2.683901 1.55874 3 0.795609 3 0 
C 3 -0.795609 2.683901 -1.55874 2.12132 -2.12132 
C 1.55874 -2.683901 0.795609 -3 0 -3 
C -0.795609 -3 -1.55874 -2.683901 -2.12132 -2.12132 
C -2.683901 -1.55874 -3 -0.795609 -3 0 
C -3 0.795609 -2.683901 1.55874 -2.12132 2.12132 
C -1.55874 2.683901 -0.795609 3 0 3 
z
" style="stroke: #245b85"/>
    </defs>
    <g clip-path="url(#pd27f0404a4)">
     <use xlink:href="#mfa9beeaa49" x="79.490625" y="32.034489" style="fill: #245b85; stroke: #245b85"/>
     <use xlink:href="#mfa9beeaa49" x="248.384049" y="132.723807" style="fill: #245b85; stroke: #245b85"/>
     <use xlink:href="#mfa9beeaa49" x="379.683255" y="153.7742" style="fill: #245b85; stroke: #245b85"/>
     <use xlink:href="#mfa9beeaa49" x="538.757294" y="180.216811" style="fill: #245b85; stroke: #245b85"/>
     <use xlink:href="#mfa9beeaa49" x="539.178125" y="178.76506" style="fill: #245b85; stroke: #245b85"/>
    </g>
   </g>
   <g id="line2d_17">
    <path d="M 79.490625 111.051235 
L 248.384049 187.99405 
L 379.683255 212.777518 
L 538.757294 226.258065 
L 539.178125 226.361761 
" clip-path="url(#pd27f0404a4)" style="fill: none; stroke: #218276; stroke-width: 1.5; stroke-linecap: square"/>
    <defs>
     <path id="m17af061d71" d="M 0 3 
C 0.795609 3 1.55874 2.683901 2.12132 2.12132 
C 2.683901 1.55874 3 0.795609 3 0 
C 3 -0.795609 2.683901 -1.55874 2.12132 -2.12132 
C 1.55874 -2.683901 0.795609 -3 0 -3 
C -0.795609 -3 -1.55874 -2.683901 -2.12132 -2.12132 
C -2.683901 -1.55874 -3 -0.795609 -3 0 
C -3 0.795609 -2.683901 1.55874 -2.12132 2.12132 
C -1.55874 2.683901 -0.795609 3 0 3 
z
" style="stroke: #218276"/>
    </defs>
    <g clip-path="url(#pd27f0404a4)">
     <use xlink:href="#m17af061d71" x="79.490625" y="111.051235" style="fill: #218276; stroke: #218276"/>
     <use xlink:href="#m17af061d71" x="248.384049" y="187.99405" style="fill: #218276; stroke: #218276"/>
     <use xlink:href="#m17af061d71" x="379.683255" y="212.777518" style="fill: #218276; stroke: #218276"/>
     <use xlink:href="#m17af061d71" x="538.757294" y="226.258065" style="fill: #218276; stroke: #218276"/>
     <use xlink:href="#m17af061d71" x="539.178125" y="226.361761" style="fill: #218276; stroke: #218276"/>
    </g>
   </g>
   <g id="patch_3">
    <path d="M 56.50625 236.078125 
L 56.50625 22.318125 
" style="fill: none; stroke: #000000; stroke-width: 0.8; stroke-linejoin: miter; stroke-linecap: square"/>
   </g>
   <g id="patch_4">
    <path d="M 56.50625 236.078125 
L 562.1625 236.078125 
" style="fill: none; stroke: #000000; stroke-width: 0.8; stroke-linejoin: miter; stroke-linecap: square"/>
   </g>
   <g id="text_18">
    <text style="font: 12px 'DejaVu Sans'; text-anchor: middle" x="309.334375" y="16.318125" transform="rotate(-0 309.334375 16.318125)">T5-efficient-tiny: training and validation</text>
   </g>
   <g id="legend_1">
    <g id="line2d_18">
     <path d="M 453.2875 35.416563 
L 463.2875 35.416563 
L 473.2875 35.416563 
" style="fill: none; stroke: #245b85; stroke-width: 1.5; stroke-linecap: square"/>
     <g>
      <use xlink:href="#mfa9beeaa49" x="463.2875" y="35.416563" style="fill: #245b85; stroke: #245b85"/>
     </g>
    </g>
    <g id="text_19">
     <text style="font: 10px 'DejaVu Sans'; text-anchor: start" x="481.2875" y="38.916563" transform="rotate(-0 481.2875 38.916563)">Training loss</text>
    </g>
    <g id="line2d_19">
     <path d="M 453.2875 50.094688 
L 463.2875 50.094688 
L 473.2875 50.094688 
" style="fill: none; stroke: #218276; stroke-width: 1.5; stroke-linecap: square"/>
     <g>
      <use xlink:href="#m17af061d71" x="463.2875" y="50.094688" style="fill: #218276; stroke: #218276"/>
     </g>
    </g>
    <g id="text_20">
     <text style="font: 10px 'DejaVu Sans'; text-anchor: start" x="481.2875" y="53.594688" transform="rotate(-0 481.2875 53.594688)">Validation loss</text>
    </g>
   </g>
  </g>
 </g>
 <defs>
  <clipPath id="pd27f0404a4">
   <rect x="56.50625" y="22.318125" width="505.65625" height="213.76"/>
  </clipPath>
 </defs>
</svg>
