<?xml version="1.0" encoding="utf-8" standalone="no"?>
<!DOCTYPE svg PUBLIC "-//W3C//DTD SVG 1.1//EN"
  "http://www.w3.org/Graphics/SVG/1.1/DTD/svg11.dtd">
<svg xmlns:xlink="http://www.w3.org/1999/xlink" width="768.96pt" height="535.68pt" viewBox="0 0 768.96 535.68" xmlns="http://www.w3.org/2000/svg" version="1.1">
 <metadata>
  <rdf:RDF xmlns:dc="http://purl.org/dc/elements/1.1/" xmlns:cc="http://creativecommons.org/ns#" xmlns:rdf="http://www.w3.org/1999/02/22-rdf-syntax-ns#">
   <cc:Work>
    <dc:type rdf:resource="http://purl.org/dc/dcmitype/StillImage"/>
    <dc:date>2026-09-30T10:04:07.398029</dc:date>
    <dc:format>image/svg+xml</dc:format>
    <dc:creator>
     <cc:Agent>
      <dc:title>Matplotlib v3.9.4, https://matplotlib.org/</dc:title>
     </cc:Agent>
    </dc:creator>
   </cc:Work>
  </rdf:RDF>
 </metadata>
 <defs>
  <style type="text/css">*{stroke-linejoin: round; stroke-linecap: butt}</style>
 </defs>
 <g id="figure_1">
  <g id="patch_1">
   <path d="M -0 535.68 
L 768.96 535.68 
L 768.96 0 
L -0 0 
z
" style="fill: #ffffff"/>
  </g>
  <g id="axes_1">
   <g id="patch_2">
    <path d="M 271.44 78.48 
L 288 78.48 
Q 306 78.48 306 97.2 
L 306 137.716718 
" clip-path="url(#p0948fdda3f)" style="fill: none; stroke: #414440; stroke-width: 2.4; stroke-linecap: round"/>
    <path d="M 309.4 130.916718 
L 306 137.716718 
L 302.6 130.916718 
z
" clip-path="url(#p0948fdda3f)" style="fill: #414440; stroke: #414440; stroke-width: 2.4; stroke-linecap: round"/>
   </g>
   <g id="patch_3">
    <path d="M 156.24 177.12 
L 138.96 177.12 
Q 120.96 177.12 120.96 158.4 
L 120.96 117.883282 
" clip-path="url(#p0948fdda3f)" style="fill: none; stroke: #414440; stroke-width: 2.4; stroke-linecap: round"/>
    <path d="M 117.56 124.683282 
L 120.96 117.883282 
L 124.36 124.683282 
z
" clip-path="url(#p0948fdda3f)" style="fill: #414440; stroke: #414440; stroke-width: 2.4; stroke-linecap: round"/>
   </g>
   <g id="patch_4">
    <path d="M 387.36 177.12 
L 403.92 177.12 
Q 421.92 177.12 421.92 195.84 
L 421.92 236.356718 
" clip-path="url(#p0948fdda3f)" style="fill: none; stroke: #414440; stroke-width: 2.4; stroke-linecap: round"/>
    <path d="M 425.32 229.556718 
L 421.92 236.356718 
L 418.52 229.556718 
z
" clip-path="url(#p0948fdda3f)" style="fill: #414440; stroke: #414440; stroke-width: 2.4; stroke-linecap: round"/>
   </g>
   <g id="patch_5">
    <path d="M 272.16 275.76 
L 254.88 275.76 
Q 236.88 275.76 236.88 257.04 
L 236.88 216.523282 
" clip-path="url(#p0948fdda3f)" style="fill: none; stroke: #414440; stroke-width: 2.4; stroke-linecap: round"/>
    <path d="M 233.48 223.323282 
L 236.88 216.523282 
L 240.28 223.323282 
z
" clip-path="url(#p0948fdda3f)" style="fill: #414440; stroke: #414440; stroke-width: 2.4; stroke-linecap: round"/>
   </g>
   <g id="patch_6">
    <path d="M 503.28 275.76 
L 519.84 275.76 
Q 537.84 275.76 537.84 294.48 
L 537.84 334.996718 
" clip-path="url(#p0948fdda3f)" style="fill: none; stroke: #414440; stroke-width: 2.4; stroke-linecap: round"/>
    <path d="M 541.24 328.196718 
L 537.84 334.996718 
L 534.44 328.196718 
z
" clip-path="url(#p0948fdda3f)" style="fill: #414440; stroke: #414440; stroke-width: 2.4; stroke-linecap: round"/>
   </g>
   <g id="patch_7">
    <path d="M 388.08 374.4 
L 370.8 374.4 
Q 352.8 374.4 352.8 355.68 
L 352.8 315.163282 
" clip-path="url(#p0948fdda3f)" style="fill: none; stroke: #414440; stroke-width: 2.4; stroke-linecap: round"/>
    <path d="M 349.4 321.963282 
L 352.8 315.163282 
L 356.2 321.963282 
z
" clip-path="url(#p0948fdda3f)" style="fill: #414440; stroke: #414440; stroke-width: 2.4; stroke-linecap: round"/>
   </g>
   <g id="patch_8">
    <path d="M 619.2 374.4 
L 635.76 374.4 
Q 653.76 374.4 653.76 393.12 
L 653.76 433.636718 
" clip-path="url(#p0948fdda3f)" style="fill: none; stroke: #414440; stroke-width: 2.4; stroke-linecap: round"/>
    <path d="M 657.16 426.836718 
L 653.76 433.636718 
L 650.36 426.836718 
z
" clip-path="url(#p0948fdda3f)" style="fill: #414440; stroke: #414440; stroke-width: 2.4; stroke-linecap: round"/>
   </g>
   <g id="patch_9">
    <path d="M 504 473.04 
L 486.72 473.04 
Q 468.72 473.04 468.72 454.32 
L 468.72 413.803282 
" clip-path="url(#p0948fdda3f)" style="fill: none; stroke: #414440; stroke-width: 2.4; stroke-linecap: round"/>
    <path d="M 465.32 420.603282 
L 468.72 413.803282 
L 472.12 420.603282 
z
" clip-path="url(#p0948fdda3f)" style="fill: #414440; stroke: #414440; stroke-width: 2.4; stroke-linecap: round"/>
   </g>
   <g id="patch_10">
    <path d="M 59.76 41.76 
L 252 41.76 
Q 271.44 41.76 271.44 61.2 
L 271.44 95.76 
Q 271.44 115.2 252 115.2 
L 59.76 115.2 
Q 40.32 115.2 40.32 95.76 
L 40.32 61.2 
Q 40.32 41.76 59.76 41.76 
z
" clip-path="url(#p0948fdda3f)" style="fill: #403487; stroke: #403487; stroke-width: 0.7; stroke-linejoin: miter"/>
   </g>
   <g id="patch_11">
    <path d="M 175.68 140.4 
L 367.92 140.4 
Q 387.36 140.4 387.36 159.84 
L 387.36 194.4 
Q 387.36 213.84 367.92 213.84 
L 175.68 213.84 
Q 156.24 213.84 156.24 194.4 
L 156.24 159.84 
Q 156.24 140.4 175.68 140.4 
z
" clip-path="url(#p0948fdda3f)" style="fill: #104b7e; stroke: #104b7e; stroke-width: 0.7; stroke-linejoin: miter"/>
   </g>
   <g id="patch_12">
    <path d="M 291.6 239.04 
L 483.84 239.04 
Q 503.28 239.04 503.28 258.48 
L 503.28 293.04 
Q 503.28 312.48 483.84 312.48 
L 291.6 312.48 
Q 272.16 312.48 272.16 293.04 
L 272.16 258.48 
Q 272.16 239.04 291.6 239.04 
z
" clip-path="url(#p0948fdda3f)" style="fill: #075747; stroke: #075747; stroke-width: 0.7; stroke-linejoin: miter"/>
   </g>
   <g id="patch_13">
    <path d="M 407.52 337.68 
L 599.76 337.68 
Q 619.2 337.68 619.2 357.12 
L 619.2 391.68 
Q 619.2 411.12 599.76 411.12 
L 407.52 411.12 
Q 388.08 411.12 388.08 391.68 
L 388.08 357.12 
Q 388.08 337.68 407.52 337.68 
z
" clip-path="url(#p0948fdda3f)" style="fill: #683c04; stroke: #683c04; stroke-width: 0.7; stroke-linejoin: miter"/>
   </g>
   <g id="patch_14">
    <path d="M 523.44 436.32 
L 715.68 436.32 
Q 735.12 436.32 735.12 455.76 
L 735.12 490.32 
Q 735.12 509.76 715.68 509.76 
L 523.44 509.76 
Q 504 509.76 504 490.32 
L 504 455.76 
Q 504 436.32 523.44 436.32 
z
" clip-path="url(#p0948fdda3f)" style="fill: #742d15; stroke: #742d15; stroke-width: 0.7; stroke-linejoin: miter"/>
   </g>
   <g id="text_1">
    <text style="fill: #ffffff; font: 700 16px 'DejaVu Sans'; text-anchor: middle" x="155.88" y="82.895" transform="rotate(-0 155.88 82.895)">PLANNING</text>
   </g>
   <g id="text_2">
    <text style="fill: #ffffff; font: 700 16px 'DejaVu Sans'; text-anchor: middle" x="271.8" y="181.535" transform="rotate(-0 271.8 181.535)">DESIGNING</text>
   </g>
   <g id="text_3">
    <text style="fill: #ffffff; font: 700 16px 'DejaVu Sans'; text-anchor: middle" x="387.72" y="280.175" transform="rotate(-0 387.72 280.175)">DEVELOPMENT</text>
   </g>
   <g id="text_4">
    <text style="fill: #ffffff; font: 700 16px 'DejaVu Sans'; text-anchor: middle" x="503.64" y="378.815" transform="rotate(-0 503.64 378.815)">TESTING</text>
   </g>
   <g id="text_5">
    <text style="fill: #ffffff; font: 700 16px 'DejaVu Sans'; text-anchor: middle" x="619.56" y="477.455" transform="rotate(-0 619.56 477.455)">IMPLEMENTATION</text>
   </g>
  </g>
 </g>
 <defs>
  <clipPath id="p0948fdda3f">
   <rect x="7.2" y="7.2" width="754.56" height="521.28"/>
  </clipPath>
 </defs>
</svg>
