<?xml version="1.0" encoding="utf-8" standalone="no"?>
<!DOCTYPE svg PUBLIC "-//W3C//DTD SVG 1.1//EN"
  "http://www.w3.org/Graphics/SVG/1.1/DTD/svg11.dtd">
<svg xmlns:xlink="http://www.w3.org/1999/xlink" width="568.8pt" height="920.88pt" viewBox="0 0 568.8 920.88" xmlns="http://www.w3.org/2000/svg" version="1.1">
 <metadata>
  <rdf:RDF xmlns:dc="http://purl.org/dc/elements/1.1/" xmlns:cc="http://creativecommons.org/ns#" xmlns:rdf="http://www.w3.org/1999/02/22-rdf-syntax-ns#">
   <cc:Work>
    <dc:type rdf:resource="http://purl.org/dc/dcmitype/StillImage"/>
    <dc:date>2026-10-07T11:41:31.629825</dc:date>
    <dc:format>image/svg+xml</dc:format>
    <dc:creator>
     <cc:Agent>
      <dc:title>Matplotlib v3.9.4, https://matplotlib.org/</dc:title>
     </cc:Agent>
    </dc:creator>
   </cc:Work>
  </rdf:RDF>
 </metadata>
 <defs>
  <style type="text/css">*{stroke-linejoin: round; stroke-linecap: butt}</style>
 </defs>
 <g id="figure_1">
  <g id="patch_1">
   <path d="M 0 920.88 
L 568.8 920.88 
L 568.8 0 
L 0 0 
z
" style="fill: #ffffff"/>
  </g>
  <g id="axes_1">
   <g id="patch_2">
    <path d="M 209.787 145.553657 
L 359.013 145.553657 
Q 363.633 145.553657 363.633 138.513086 
L 363.633 76.556057 
Q 363.633 69.515486 359.013 69.515486 
L 209.787 69.515486 
Q 205.167 69.515486 205.167 76.556057 
L 205.167 138.513086 
Q 205.167 145.553657 209.787 145.553657 
z
" clip-path="url(#p822b55c340)" style="fill: #e8f1f7; stroke: #245b85; stroke-width: 1.2; stroke-linejoin: miter"/>
   </g>
   <g id="patch_3">
    <path d="M 209.787 237.081086 
L 359.013 237.081086 
Q 363.633 237.081086 363.633 230.040514 
L 363.633 168.083486 
Q 363.633 161.042914 359.013 161.042914 
L 209.787 161.042914 
Q 205.167 161.042914 205.167 168.083486 
L 205.167 230.040514 
Q 205.167 237.081086 209.787 237.081086 
z
" clip-path="url(#p822b55c340)" style="fill: #e8f1f7; stroke: #245b85; stroke-width: 1.2; stroke-linejoin: miter"/>
   </g>
   <g id="patch_4">
    <path d="M 209.787 328.608514 
L 359.013 328.608514 
Q 363.633 328.608514 363.633 321.567943 
L 363.633 259.610914 
Q 363.633 252.570343 359.013 252.570343 
L 209.787 252.570343 
Q 205.167 252.570343 205.167 259.610914 
L 205.167 321.567943 
Q 205.167 328.608514 209.787 328.608514 
z
" clip-path="url(#p822b55c340)" style="fill: #e8f1f7; stroke: #245b85; stroke-width: 1.2; stroke-linejoin: miter"/>
   </g>
   <g id="patch_5">
    <path d="M 209.787 420.135943 
L 359.013 420.135943 
Q 363.633 420.135943 363.633 413.095371 
L 363.633 351.138343 
Q 363.633 344.097771 359.013 344.097771 
L 209.787 344.097771 
Q 205.167 344.097771 205.167 351.138343 
L 205.167 413.095371 
Q 205.167 420.135943 209.787 420.135943 
z
" clip-path="url(#p822b55c340)" style="fill: #e8f1f7; stroke: #245b85; stroke-width: 1.2; stroke-linejoin: miter"/>
   </g>
   <g id="patch_6">
    <path d="M 209.787 511.663371 
L 359.013 511.663371 
Q 363.633 511.663371 363.633 504.6228 
L 363.633 442.665771 
Q 363.633 435.6252 359.013 435.6252 
L 209.787 435.6252 
Q 205.167 435.6252 205.167 442.665771 
L 205.167 504.6228 
Q 205.167 511.663371 209.787 511.663371 
z
" clip-path="url(#p822b55c340)" style="fill: #e8f1f7; stroke: #245b85; stroke-width: 1.2; stroke-linejoin: miter"/>
   </g>
   <g id="patch_7">
    <path d="M 209.787 603.1908 
L 359.013 603.1908 
Q 363.633 603.1908 363.633 596.150229 
L 363.633 534.1932 
Q 363.633 527.152629 359.013 527.152629 
L 209.787 527.152629 
Q 205.167 527.152629 205.167 534.1932 
L 205.167 596.150229 
Q 205.167 603.1908 209.787 603.1908 
z
" clip-path="url(#p822b55c340)" style="fill: #e8f1f7; stroke: #245b85; stroke-width: 1.2; stroke-linejoin: miter"/>
   </g>
   <g id="patch_8">
    <path d="M 209.787 694.718229 
L 359.013 694.718229 
Q 363.633 694.718229 363.633 687.677657 
L 363.633 625.720629 
Q 363.633 618.680057 359.013 618.680057 
L 209.787 618.680057 
Q 205.167 618.680057 205.167 625.720629 
L 205.167 687.677657 
Q 205.167 694.718229 209.787 694.718229 
z
" clip-path="url(#p822b55c340)" style="fill: #e8f1f7; stroke: #245b85; stroke-width: 1.2; stroke-linejoin: miter"/>
   </g>
   <g id="patch_9">
    <path d="M 209.787 786.245657 
L 359.013 786.245657 
Q 363.633 786.245657 363.633 779.205086 
L 363.633 717.248057 
Q 363.633 710.207486 359.013 710.207486 
L 209.787 710.207486 
Q 205.167 710.207486 205.167 717.248057 
L 205.167 779.205086 
Q 205.167 786.245657 209.787 786.245657 
z
" clip-path="url(#p822b55c340)" style="fill: #e8f1f7; stroke: #245b85; stroke-width: 1.2; stroke-linejoin: miter"/>
   </g>
   <g id="patch_10">
    <path d="M 209.787 877.773086 
L 359.013 877.773086 
Q 363.633 877.773086 363.633 870.732514 
L 363.633 808.775486 
Q 363.633 801.734914 359.013 801.734914 
L 209.787 801.734914 
Q 205.167 801.734914 205.167 808.775486 
L 205.167 870.732514 
Q 205.167 877.773086 209.787 877.773086 
z
" clip-path="url(#p822b55c340)" style="fill: #e7f3ef; stroke: #218276; stroke-width: 1.2; stroke-linejoin: miter"/>
   </g>
   <g id="patch_11">
    <path d="M 284.4 144.735638 
Q 284.4 153.295927 284.4 160.514576 
" clip-path="url(#p822b55c340)" style="fill: none; stroke: #4b5966; stroke-width: 1.2; stroke-linecap: round"/>
    <path d="M 286.8 155.714576 
L 284.4 160.514576 
L 282 155.714576 
z
" clip-path="url(#p822b55c340)" style="fill: #4b5966; stroke: #4b5966; stroke-width: 1.2; stroke-linecap: round"/>
   </g>
   <g id="patch_12">
    <path d="M 284.4 236.263066 
Q 284.4 244.823356 284.4 252.042005 
" clip-path="url(#p822b55c340)" style="fill: none; stroke: #4b5966; stroke-width: 1.2; stroke-linecap: round"/>
    <path d="M 286.8 247.242005 
L 284.4 252.042005 
L 282 247.242005 
z
" clip-path="url(#p822b55c340)" style="fill: #4b5966; stroke: #4b5966; stroke-width: 1.2; stroke-linecap: round"/>
   </g>
   <g id="patch_13">
    <path d="M 284.4 327.790495 
Q 284.4 336.350785 284.4 343.569433 
" clip-path="url(#p822b55c340)" style="fill: none; stroke: #4b5966; stroke-width: 1.2; stroke-linecap: round"/>
    <path d="M 286.8 338.769433 
L 284.4 343.569433 
L 282 338.769433 
z
" clip-path="url(#p822b55c340)" style="fill: #4b5966; stroke: #4b5966; stroke-width: 1.2; stroke-linecap: round"/>
   </g>
   <g id="patch_14">
    <path d="M 284.4 419.317923 
Q 284.4 427.878213 284.4 435.096862 
" clip-path="url(#p822b55c340)" style="fill: none; stroke: #4b5966; stroke-width: 1.2; stroke-linecap: round"/>
    <path d="M 286.8 430.296862 
L 284.4 435.096862 
L 282 430.296862 
z
" clip-path="url(#p822b55c340)" style="fill: #4b5966; stroke: #4b5966; stroke-width: 1.2; stroke-linecap: round"/>
   </g>
   <g id="patch_15">
    <path d="M 284.4 510.845352 
Q 284.4 519.405642 284.4 526.624291 
" clip-path="url(#p822b55c340)" style="fill: none; stroke: #4b5966; stroke-width: 1.2; stroke-linecap: round"/>
    <path d="M 286.8 521.824291 
L 284.4 526.624291 
L 282 521.824291 
z
" clip-path="url(#p822b55c340)" style="fill: #4b5966; stroke: #4b5966; stroke-width: 1.2; stroke-linecap: round"/>
   </g>
   <g id="patch_16">
    <path d="M 284.4 602.37278 
Q 284.4 610.93307 284.4 618.151719 
" clip-path="url(#p822b55c340)" style="fill: none; stroke: #4b5966; stroke-width: 1.2; stroke-linecap: round"/>
    <path d="M 286.8 613.351719 
L 284.4 618.151719 
L 282 613.351719 
z
" clip-path="url(#p822b55c340)" style="fill: #4b5966; stroke: #4b5966; stroke-width: 1.2; stroke-linecap: round"/>
   </g>
   <g id="patch_17">
    <path d="M 284.4 693.900209 
Q 284.4 702.460499 284.4 709.679148 
" clip-path="url(#p822b55c340)" style="fill: none; stroke: #4b5966; stroke-width: 1.2; stroke-linecap: round"/>
    <path d="M 286.8 704.879148 
L 284.4 709.679148 
L 282 704.879148 
z
" clip-path="url(#p822b55c340)" style="fill: #4b5966; stroke: #4b5966; stroke-width: 1.2; stroke-linecap: round"/>
   </g>
   <g id="patch_18">
    <path d="M 284.4 785.427638 
Q 284.4 793.987927 284.4 801.206576 
" clip-path="url(#p822b55c340)" style="fill: none; stroke: #4b5966; stroke-width: 1.2; stroke-linecap: round"/>
    <path d="M 286.8 796.406576 
L 284.4 801.206576 
L 282 796.406576 
z
" clip-path="url(#p822b55c340)" style="fill: #4b5966; stroke: #4b5966; stroke-width: 1.2; stroke-linecap: round"/>
   </g>
   <g id="text_1">
    <text style="font: 9.5px 'DejaVu Sans'; text-anchor: middle" x="284.4" y="110.155978" transform="rotate(-0 284.4 110.155978)">Start Live camera</text>
   </g>
   <g id="text_2">
    <text style="font: 9.5px 'DejaVu Sans'" transform="translate(219.796289 196.364445)">Landmark extractor: locate</text>
    <text style="font: 9.5px 'DejaVu Sans'" transform="translate(240.753437 207.002367)">signing landmarks</text>
   </g>
   <g id="text_3">
    <text style="font: 9.5px 'DejaVu Sans'" transform="translate(231.988203 282.572913)">Landmark motion and</text>
    <text style="font: 9.5px 'DejaVu Sans'" transform="translate(225.600937 293.210835)">MobileCLIP2 hand-image</text>
    <text style="font: 9.5px 'DejaVu Sans'" transform="translate(264.778789 303.848757)">features</text>
   </g>
   <g id="text_4">
    <text style="font: 9.5px 'DejaVu Sans'; text-anchor: middle" x="284.4" y="384.738263" transform="rotate(-0 284.4 384.738263)">Streaming Sign Recognition</text>
   </g>
   <g id="text_5">
    <text style="font: 9.5px 'DejaVu Sans'; text-anchor: middle" x="284.4" y="476.265692" transform="rotate(-0 284.4 476.265692)">Recognized glosses</text>
   </g>
   <g id="text_6">
    <text style="font: 9.5px 'DejaVu Sans'" transform="translate(245.476719 557.155199)">T5-efficient-tiny:</text>
    <text style="font: 9.5px 'DejaVu Sans'" transform="translate(237.376484 567.793121)">incremental English</text>
    <text style="font: 9.5px 'DejaVu Sans'" transform="translate(258.56668 578.431042)">generation</text>
   </g>
   <g id="text_7">
    <text style="font: 9.5px 'DejaVu Sans'" transform="translate(220.183711 654.001588)">Finish button or held-open-</text>
    <text style="font: 9.5px 'DejaVu Sans'" transform="translate(250.489453 664.63951)">palms gesture</text>
   </g>
   <g id="text_8">
    <text style="font: 9.5px 'DejaVu Sans'; text-anchor: middle" x="284.4" y="750.847978" transform="rotate(-0 284.4 750.847978)">Finalize English text</text>
   </g>
   <g id="text_9">
    <text style="font: 9.5px 'DejaVu Sans'" transform="translate(233.339727 837.056445)">English text and local</text>
    <text style="font: 9.5px 'DejaVu Sans'" transform="translate(250.266055 847.694367)">speech output</text>
   </g>
  </g>
  <g id="text_10">
   <text style="font: 700 14px 'DejaVu Sans'; text-anchor: middle" x="284.4" y="17.837812" transform="rotate(-0 284.4 17.837812)">ATLAS: Live recognition and English output</text>
  </g>
 </g>
 <defs>
  <clipPath id="p822b55c340">
   <rect x="7.2" y="51.21" width="554.4" height="862.47"/>
  </clipPath>
 </defs>
</svg>
